<svg width="20" height="24" viewBox="0 0 20 24" fill="none" xmlns="http://www.w3.org/2000/svg">
<path fill-rule="evenodd" clip-rule="evenodd" d="M10 1.49988C9.37868 1.49988 8.875 2.00356 8.875 2.62488C8.875 3.2462 9.37868 3.74988 10 3.74988C10.6213 3.74988 11.125 3.2462 11.125 2.62488C11.125 2.00356 10.6213 1.49988 10 1.49988ZM7.375 2.62488C7.375 1.17513 8.55025 -0.00012207 10 -0.00012207C11.4497 -0.00012207 12.625 1.17513 12.625 2.62488C12.625 4.07463 11.4497 5.24988 10 5.24988C8.55025 5.24988 7.375 4.07463 7.375 2.62488Z" fill="white"/>
<path fill-rule="evenodd" clip-rule="evenodd" d="M17.8142 6.7624L17.7926 6.76994C17.7597 6.78134 17.7119 6.79772 17.6503 6.81839C17.5272 6.8597 17.349 6.91816 17.1247 6.98803C16.6765 7.12768 16.0427 7.31347 15.2965 7.49927C13.8137 7.86846 11.8471 8.24806 10 8.24806C8.15297 8.24806 6.17456 7.8668 4.68073 7.49614C3.92886 7.30958 3.28935 7.12304 2.83688 6.98284C2.61049 6.91269 2.4305 6.85401 2.3062 6.81255C2.24403 6.79182 2.19577 6.77538 2.16256 6.76395L2.14595 6.7582C2.03338 6.73424 1.93424 6.76388 1.86535 6.81868C1.79868 6.87171 1.7397 6.96431 1.74871 7.119C1.75345 7.19756 1.77883 7.25238 1.85781 7.32111C1.95612 7.40665 2.12038 7.49318 2.35923 7.57305L6.69326 8.97542C6.70461 8.97909 6.71587 8.98303 6.72703 8.98724C7.30672 9.20587 7.95011 9.58776 8.24923 10.3626C8.40827 10.7717 8.45038 11.2256 8.44512 11.6528C8.43978 12.0869 8.38432 12.5441 8.31382 12.9832C8.31234 12.9924 8.31069 13.0016 8.30886 13.0108L8.0323 14.3997L8.02794 14.4201L6.27311 22.1091C6.26265 22.1524 6.26718 22.2327 6.33243 22.3258C6.39707 22.4181 6.49185 22.4779 6.58542 22.4943C6.68033 22.5109 6.74978 22.4902 6.81528 22.4415C6.89141 22.3848 6.97935 22.2732 7.03392 22.098L7.0364 22.09L8.76613 16.7439C8.8629 16.445 8.94852 16.1427 9.02287 15.8373L9.27153 14.8216C9.35368 14.486 9.65439 14.25 9.99984 14.2499C10.3453 14.2498 10.6461 14.4857 10.7284 14.8212L10.9984 15.9219C11.0593 16.1705 11.1293 16.4165 11.2083 16.6596L12.9731 22.1067C13.0236 22.272 13.1093 22.382 13.1875 22.4396C13.2563 22.4903 13.3294 22.5109 13.4239 22.4944C13.6539 22.454 13.7631 22.2579 13.7302 22.0926L11.9782 14.4168L11.9738 14.3964L11.6973 13.0075C11.6955 12.9983 11.6938 12.9891 11.6923 12.9799C11.6209 12.5349 11.5682 12.0551 11.5757 11.6047C11.5829 11.1716 11.6459 10.6797 11.8746 10.268C12.0824 9.88867 12.4189 9.62782 12.6927 9.45809C12.979 9.28058 13.2752 9.15513 13.4867 9.07581L13.4943 9.07294L17.6186 7.57748C17.9321 7.46336 18.0959 7.38603 18.1881 7.30982C18.223 7.28096 18.2322 7.26393 18.2353 7.25754C18.238 7.25205 18.25 7.22658 18.25 7.16009C18.25 7.00625 18.1855 6.87861 18.1117 6.81217C18.0779 6.78182 18.0418 6.76303 18.0014 6.75374C17.9643 6.74521 17.9041 6.74025 17.8142 6.7624ZM2.6096 5.33133L2.6111 5.33186L2.61851 5.33446L2.65061 5.34557C2.67954 5.35552 2.72333 5.37045 2.78082 5.38962C2.89584 5.42799 3.06558 5.48335 3.28084 5.55005C3.71167 5.68354 4.32313 5.86192 5.04197 6.04029C6.48955 6.39947 8.33145 6.74806 10 6.74806C11.6686 6.74806 13.4988 6.40108 14.934 6.04371C15.6468 5.86623 16.2523 5.68874 16.6785 5.55593C16.8915 5.48957 17.0594 5.43451 17.173 5.39635C17.2298 5.37728 17.2731 5.36245 17.3016 5.35256L17.3333 5.34152L17.3406 5.33895L17.342 5.33844M17.342 5.33844C17.3588 5.33247 17.3759 5.32705 17.393 5.32229C18.0564 5.13801 18.6742 5.3005 19.115 5.6971C19.5333 6.07351 19.75 6.62064 19.75 7.16009C19.75 7.73011 19.5108 8.16253 19.144 8.46582C18.826 8.72869 18.4268 8.87962 18.1315 8.98707L14.0097 10.4817C13.847 10.5429 13.6526 10.6279 13.4831 10.7329C13.3007 10.846 13.2166 10.9399 13.1899 10.989L13.1862 10.9958C13.1351 11.0874 13.0812 11.286 13.0755 11.6296C13.0701 11.9532 13.108 12.3319 13.1712 12.7285L13.4429 14.0932L15.1966 21.7765C15.4238 22.8434 14.6797 23.7968 13.6833 23.9718C12.5932 24.1632 11.8005 23.394 11.5404 22.5512L10.001 17.7999L8.46477 22.5481C8.20211 23.386 7.42471 24.1637 6.32712 23.9719C5.3335 23.7982 4.56758 22.794 4.81382 21.7618L6.56322 14.0965L6.83498 12.7317C6.89918 12.3295 6.94124 11.959 6.94524 11.6344C6.94935 11.2998 6.91186 11.062 6.85098 10.9057L6.85003 10.9032C6.77494 10.7084 6.60658 10.5475 6.21351 10.3968L1.88784 8.9971C1.29645 8.79996 0.318823 8.33878 0.251354 7.20804C0.173213 5.87965 1.37635 5.00001 2.55264 5.31369C2.57179 5.3188 2.59092 5.32473 2.6096 5.33133C2.60965 5.33135 2.60956 5.33132 2.6096 5.33133" fill="white"/>
</svg>
