<svg width="40" height="40" viewBox="0 0 40 40" fill="none" xmlns="http://www.w3.org/2000/svg">
<rect width="40" height="40" rx="20" fill="white" fill-opacity="0.2"/>
<path d="M29 19.9999C29 15.0312 24.9688 10.9999 20 10.9999C15.0312 10.9999 11 15.0312 11 19.9999C11 24.9687 15.0312 28.9999 20 28.9999C24.9688 28.9999 29 24.9687 29 19.9999Z" stroke="white" stroke-width="1.5" stroke-miterlimit="10"/>
<path d="M18.14 23.6767L23.5049 20.4358C23.5796 20.3902 23.6414 20.3262 23.6843 20.2498C23.7272 20.1735 23.7497 20.0874 23.7497 19.9998C23.7497 19.9122 23.7272 19.8262 23.6843 19.7498C23.6414 19.6735 23.5796 19.6094 23.5049 19.5639L18.14 16.3229C18.0631 16.2769 17.9753 16.2521 17.8857 16.2511C17.7961 16.2502 17.7078 16.2731 17.6299 16.3175C17.5521 16.3619 17.4874 16.4262 17.4426 16.5039C17.3978 16.5815 17.3745 16.6697 17.375 16.7593V23.2403C17.3745 23.3299 17.3978 23.4181 17.4426 23.4957C17.4874 23.5734 17.5521 23.6377 17.6299 23.6821C17.7078 23.7266 17.7961 23.7495 17.8857 23.7485C17.9753 23.7475 18.0631 23.7228 18.14 23.6767Z" fill="white"/>
</svg>
